<svg width="35" height="34" viewBox="0 0 35 34" fill="none" xmlns="http://www.w3.org/2000/svg">
<path d="M24.4055 0.311367C25.3245 0.542476 27.2392 2.20374 28.1637 3.57136L28.3306 3.81878L28.4619 3.73993C28.533 3.69643 28.6889 3.62574 28.8092 3.58496C29.0034 3.51698 29.0663 3.50883 29.3836 3.50883C29.7885 3.50883 29.9772 3.54689 30.2835 3.70187C30.6856 3.90035 30.9756 4.19943 31.178 4.62086C31.3941 5.06949 31.4214 5.56705 31.26 6.04558C31.2135 6.18425 31.1752 6.30116 31.1752 6.30388C31.1752 6.30932 31.2573 6.3637 31.3612 6.42351C31.9548 6.77425 32.9915 7.66062 33.6069 8.34579C34.8487 9.72429 35.2289 10.7792 34.3974 10.5508C34.0856 10.4638 33.5905 10.1838 33.1036 9.81945C32.2256 9.15875 31.1999 8.10381 30.6583 7.30444L30.4942 7.05974L30.2535 7.17937C29.7885 7.40504 29.4219 7.43223 28.7819 7.27997C28.7381 7.27182 28.6396 7.34523 28.3853 7.57634C26.4104 9.35451 24.5586 11.6221 23.2621 13.8489L23.0843 14.1561L23.2566 14.5069C23.7955 15.6108 23.9924 16.9158 23.79 18.0795C23.7025 18.5961 23.5903 18.9877 23.3852 19.4961L23.3305 19.6348L23.5138 20.0127C24.0471 21.1057 24.9169 22.3972 26.0876 23.8437C26.8426 24.7735 27.778 25.8258 28.5713 26.6387L28.8311 26.9025L29.0663 26.859C29.504 26.7774 30.0127 26.8562 30.3547 27.0574C30.3629 27.0629 30.4094 26.9976 30.4586 26.9161C30.8415 26.2825 32.097 25.059 33.0899 24.3548C33.7984 23.8545 34.5259 23.5228 34.8049 23.5745C35.2426 23.6561 34.928 24.3711 34.0199 25.3717C33.2923 26.1711 32.1107 27.1227 31.3065 27.5523L31.0439 27.6909L31.1369 27.903C31.2792 28.2266 31.3202 28.4577 31.3065 28.8275C31.2956 29.0776 31.2792 29.1864 31.2217 29.3441C31.033 29.8688 30.6829 30.2576 30.1987 30.4806C29.9307 30.6056 29.679 30.66 29.37 30.66C29.0281 30.66 28.8092 30.6138 28.5631 30.4914L28.3634 30.3908L28.2294 30.5703C27.8492 31.0896 26.9274 32.0195 26.3065 32.5143C25.4175 33.2212 24.5778 33.6726 24.1483 33.6726C24.0608 33.6726 24.017 33.6563 23.9623 33.6019C23.8994 33.5394 23.894 33.5176 23.9076 33.3844C23.987 32.6176 25.7731 30.7905 27.4334 29.7736C27.551 29.7002 27.6467 29.6323 27.6467 29.6214C27.6467 29.6078 27.6221 29.5425 27.592 29.4746C27.4607 29.17 27.4252 28.754 27.4963 28.3598L27.5346 28.1423L27.2966 27.884C26.911 27.4571 25.7786 26.3424 25.3163 25.9291C23.8557 24.6294 22.209 23.4304 20.8168 22.6501L20.5898 22.525L20.3053 22.6582C19.7829 22.9084 19.2276 23.0715 18.593 23.1667C18.2128 23.2238 17.3868 23.2319 17.0066 23.183C16.3884 23.1014 15.762 22.9219 15.2259 22.6691L14.9114 22.5223L14.5558 22.718C13.2893 23.4222 11.6892 24.6213 10.0316 26.114C9.51467 26.5789 8.52724 27.5088 8.14704 27.8894L7.80787 28.2293L7.83796 28.387C7.87898 28.5828 7.87898 28.977 7.84069 29.1646C7.82428 29.2435 7.77231 29.3903 7.72854 29.4936C7.68204 29.5942 7.64922 29.6812 7.65469 29.6866C7.66016 29.6894 7.79419 29.7818 7.95284 29.8878C8.34398 30.1543 8.74333 30.4887 9.1837 30.9265C10.1192 31.8563 10.8194 32.7808 11.0738 33.4143C11.164 33.64 11.164 33.8738 11.0738 33.9472C10.658 34.2843 8.77068 32.8515 7.50699 31.2391C7.3292 31.0135 6.95446 30.467 6.93258 30.4017C6.92711 30.3854 6.89429 30.3936 6.856 30.4207C6.73017 30.5023 6.35271 30.6219 6.13115 30.6519C5.36528 30.7579 4.56658 30.331 4.19458 29.6214C3.93747 29.1347 3.90464 28.6099 4.09611 28.0444C4.13714 27.9166 4.16176 27.8106 4.15082 27.8051C4.13714 27.7997 4.00038 27.7127 3.84447 27.6094C2.33187 26.6115 0.521123 24.4772 0.501976 23.6724C0.499241 23.55 0.510179 23.5174 0.564884 23.4739C1.03261 23.096 3.15518 24.7871 4.42161 26.5463C4.5447 26.7176 4.67599 26.9106 4.71428 26.9759C4.75258 27.0384 4.79361 27.0928 4.80455 27.0928C4.81549 27.0928 4.90302 27.0493 5.00422 26.9976C5.38442 26.7964 5.92327 26.7339 6.32535 26.8454L6.51409 26.897L6.77941 26.655C7.12679 26.3369 7.91181 25.5348 8.31116 25.0917C9.77179 23.4712 10.9835 21.7773 11.8861 20.0943L12.1351 19.6348L12.0776 19.4961C11.9545 19.197 11.7767 18.6097 11.7138 18.2998C11.4759 17.1252 11.588 15.918 12.0421 14.7924L12.1679 14.4797L12.0667 14.2948C11.5005 13.2725 10.8139 12.2991 9.82649 11.1191C8.99224 10.1213 7.8489 8.90045 6.83958 7.92708L6.21047 7.32076L5.76189 7.31532C5.25313 7.30988 5.08354 7.2691 4.76899 7.07877C4.61034 6.98089 4.5994 6.97817 4.56111 7.02439C4.53923 7.05158 4.44076 7.17665 4.34229 7.30173C3.95935 7.79385 3.10321 8.59321 2.35101 9.15875C1.50855 9.79226 0.646945 10.2354 0.258537 10.2354C0.124509 10.2354 0.0233049 10.1838 0.00415802 10.1077C-0.0341357 9.96627 0.192891 9.56659 0.584034 9.0799C0.871237 8.72644 1.73558 7.85367 2.0939 7.56274C2.7066 7.05974 3.41777 6.5649 3.81165 6.3637L4.00585 6.26581L3.93473 6.07005C3.87182 5.8906 3.86635 5.83079 3.86635 5.46373C3.86635 5.09396 3.87456 5.03414 3.9402 4.83838C4.13988 4.24293 4.59393 3.79159 5.2039 3.58496C5.40083 3.51698 5.46101 3.50883 5.79198 3.50883C6.12021 3.50883 6.18859 3.51698 6.39373 3.58496C6.74658 3.69643 6.72744 3.69643 6.79582 3.59311C6.93805 3.37016 7.3374 2.90522 7.69299 2.55176C8.64212 1.6083 9.95231 0.692019 10.6963 0.460911C11.9764 0.0585099 11.2652 1.4941 9.4162 3.04389C8.82539 3.53873 7.89813 4.19127 7.56169 4.35169L7.46322 4.39791L7.54528 4.55561C7.74769 4.95529 7.80513 5.49908 7.69572 5.95042L7.64102 6.16521L8.35218 6.86126C8.74059 7.24463 9.23841 7.715 9.45723 7.90804C11.03 9.29742 12.756 10.5209 14.5147 11.497L14.9907 11.7608L15.308 11.6275C16.0985 11.2931 16.7522 11.1436 17.5536 11.1164C18.3113 11.0892 18.9541 11.1816 19.7035 11.4263L20.1001 11.5568L20.6116 11.2958C22.4552 10.3578 24.6981 8.65031 27.231 6.2631L27.5373 5.97217L27.4936 5.78728C27.4307 5.52083 27.4553 5.12387 27.551 4.85197C27.5893 4.7405 27.6276 4.62902 27.6358 4.60455C27.6467 4.57464 27.6002 4.53114 27.4635 4.45229C26.9903 4.17224 26.1724 3.50067 25.5625 2.88891C24.1183 1.44516 23.5056 0.0829773 24.4055 0.311367ZM5.58683 5.06949C5.42819 5.14562 5.34339 5.3006 5.3598 5.4882C5.37348 5.65406 5.43366 5.74922 5.57589 5.82807C5.84942 5.98305 6.21321 5.77097 6.20774 5.46373C6.205 5.26525 6.10106 5.12115 5.90959 5.05317C5.76736 5.00423 5.71812 5.00695 5.58683 5.06949ZM29.1429 5.10755C29.0937 5.12658 29.0198 5.18096 28.9761 5.22718C28.7491 5.46917 28.9761 5.88516 29.3371 5.88516C29.5505 5.88516 29.731 5.70028 29.7338 5.48005C29.7392 5.18096 29.4301 4.9852 29.1429 5.10755ZM29.0828 28.4278C28.9651 28.4957 28.8776 28.6643 28.8776 28.8166C28.8776 28.9226 28.894 28.958 28.9733 29.0477C29.0964 29.1836 29.1976 29.2244 29.3727 29.2081C29.6763 29.1782 29.8295 28.8546 29.6736 28.5692C29.6353 28.4985 29.4876 28.3816 29.411 28.3625C29.3262 28.3435 29.173 28.3734 29.0828 28.4278ZM5.66889 28.4794C5.53213 28.5637 5.4528 28.7377 5.47742 28.8927C5.50477 29.0477 5.68804 29.2271 5.84121 29.2543C6.04362 29.287 6.23782 29.1755 6.30894 28.9879C6.35818 28.8574 6.34724 28.6317 6.28432 28.5556C6.15303 28.387 5.87403 28.3544 5.66889 28.4794Z" fill="white"/>
</svg>
